<svg width="71.425293" height="78.000000" viewBox="0 0 71.4253 78" fill="none" xmlns="http://www.w3.org/2000/svg" xmlns:xlink="http://www.w3.org/1999/xlink">
	<desc>
			Created with Pixso.
	</desc>
	<defs/>
	<path id="Vector" d="M52.06 72.96L71.42 72.96L66.45 58.05C65.15 54.15 61.84 51.26 57.8 50.51L44.51 48.02L44.51 44.94C47.7 42.65 49.94 39.15 50.59 35.12C53.56 34.61 55.84 32.04 55.84 28.93L55.84 20.12C55.84 9.03 46.81 0 35.71 0C24.61 0 15.58 9.03 15.58 20.12L15.58 28.93C15.58 32.04 17.84 34.62 20.81 35.13C21.46 39.16 23.72 42.67 26.9 44.96L26.9 48.02L13.62 50.51C9.58 51.27 6.26 54.16 4.96 58.05L0 72.96L19.35 72.96L19.35 70.45L15.93 70.45L18.06 61.94L15.62 61.34L13.34 70.45L3.48 70.45L7.35 58.85C8.36 55.82 10.94 53.57 14.08 52.98L22.1 51.48L24.15 60.7C22.81 61.28 21.87 62.61 21.87 64.16L21.87 74.22C21.87 76.3 23.56 78 25.64 78L45.77 78C47.85 78 49.55 76.3 49.55 74.22L49.55 64.16C49.55 62.61 48.61 61.28 47.27 60.7L49.32 51.48L57.33 52.98C60.48 53.57 63.05 55.82 64.07 58.85L67.93 70.45L58.08 70.45L55.8 61.34L53.36 61.94L55.48 70.45L52.06 70.45L52.06 72.96ZM46.85 51.01L45.11 58.83L44.24 55.35L38.74 55.35L43.68 50.42L46.85 51.01ZM42.9 60.38L28.51 60.38L29.14 57.87L42.27 57.87L42.9 60.38ZM35.71 54.83L29.42 48.54L29.42 46.42C31.33 47.3 33.46 47.8 35.71 47.8C37.95 47.8 40.08 47.29 42 46.41L42 48.54L35.71 54.83ZM50.8 32.47L50.8 25.39C52.27 25.91 53.32 27.29 53.32 28.93C53.32 30.57 52.27 31.95 50.8 32.47ZM20.61 32.49C19.15 31.97 18.09 30.57 18.09 28.93C18.09 27.29 19.15 25.89 20.61 25.37L20.61 32.49ZM18.09 23.93L18.09 20.12C18.09 10.41 26 2.51 35.71 2.51C45.42 2.51 53.32 10.41 53.32 20.12L53.32 23.93C52.58 23.37 51.72 22.95 50.76 22.76C50.57 21.28 49.31 20.12 47.77 20.12C46.97 20.12 46.19 20.45 45.56 21.08C43.43 23.2 40.74 24.56 37.82 25L37.9 24.84C38.11 24.42 38.22 23.95 38.22 23.48L38.22 23.16C38.22 21.49 36.86 20.12 35.19 20.12C34.39 20.12 33.61 20.45 33.04 21.01C30.39 23.66 26.87 25.13 23.13 25.16L23.13 22.64L21.87 22.64C20.45 22.64 19.15 23.13 18.09 23.93ZM23.13 32.7L23.13 27.67C27.54 27.65 31.69 25.92 34.82 22.79C35.12 22.49 35.71 22.74 35.71 23.16L35.71 23.48C35.71 23.56 35.69 23.64 35.65 23.71L33.67 27.67L35.71 27.67C40.1 27.67 44.23 25.96 47.4 22.79C47.7 22.49 48.29 22.74 48.29 23.16L48.29 32.7C48.29 39.64 42.64 45.29 35.71 45.29C28.77 45.29 23.13 39.64 23.13 32.7ZM27.74 50.42L32.67 55.35L27.18 55.35L26.31 58.83L24.57 51.01L27.74 50.42ZM25.64 75.48C24.95 75.48 24.39 74.92 24.39 74.22L24.39 64.16C24.39 63.46 24.95 62.9 25.64 62.9L29.56 62.9C27.92 64.5 26.9 66.73 26.9 69.19C26.9 71.65 27.92 73.88 29.56 75.48L25.64 75.48ZM35.71 75.48C32.24 75.48 29.42 72.66 29.42 69.19C29.42 65.72 32.24 62.9 35.71 62.9C39.18 62.9 42 65.72 42 69.19C42 72.66 39.18 75.48 35.71 75.48ZM47.03 74.22C47.03 74.92 46.47 75.48 45.77 75.48L41.86 75.48C43.5 73.88 44.51 71.65 44.51 69.19C44.51 66.73 43.5 64.5 41.86 62.9L45.77 62.9C46.47 62.9 47.03 63.46 47.03 64.16L47.03 74.22Z" fill="#FFB400" fill-opacity="1.000000" fill-rule="nonzero"/>
</svg>
