<svg width="76.000000" height="74.662598" viewBox="0 0 76 74.6626" fill="none" xmlns="http://www.w3.org/2000/svg" xmlns:xlink="http://www.w3.org/1999/xlink">
	<desc>
			Created with Pixso.
	</desc>
	<defs/>
	<path id="Vector" d="M35.32 54.47C34.71 54.47 34.21 54.97 34.21 55.58C34.21 56.2 34.71 56.7 35.32 56.7L40.67 56.7C41.28 56.7 41.78 56.2 41.78 55.58C41.78 54.97 41.28 54.47 40.67 54.47L35.32 54.47Z" fill="#FFB400" fill-opacity="1.000000" fill-rule="nonzero"/>
	<path id="Vector" d="M13.35 37.18L20.71 37.18C21.16 38.35 22.3 39.19 23.62 39.19C24.95 39.19 26.08 38.35 26.53 37.18L28 37.18C28.62 37.18 29.11 36.68 29.11 36.07C29.11 35.46 28.62 34.96 28 34.96L26.53 34.96C26.08 33.79 24.95 32.95 23.62 32.95C22.3 32.95 21.16 33.79 20.71 34.96L13.35 34.96C12.74 34.96 12.24 35.46 12.24 36.07C12.24 36.68 12.74 37.18 13.35 37.18ZM23.62 35.18C24.11 35.18 24.51 35.58 24.51 36.07C24.51 36.56 24.11 36.96 23.62 36.96C23.13 36.96 22.73 36.56 22.73 36.07C22.73 35.58 23.13 35.18 23.62 35.18Z" fill="#FFB400" fill-opacity="1.000000" fill-rule="nonzero"/>
	<path id="Vector" d="M13.35 30.8L14.78 30.8C15.23 31.97 16.36 32.8 17.68 32.8C19.01 32.8 20.14 31.97 20.59 30.8L28 30.8C28.62 30.8 29.11 30.3 29.11 29.69C29.11 29.07 28.62 28.57 28 28.57L20.59 28.57C20.14 27.4 19.01 26.57 17.68 26.57C16.36 26.57 15.23 27.4 14.78 28.57L13.35 28.57C12.74 28.57 12.24 29.07 12.24 29.69C12.24 30.3 12.74 30.8 13.35 30.8ZM17.68 28.8C18.18 28.8 18.57 29.2 18.57 29.69C18.57 30.18 18.18 30.58 17.68 30.58C17.19 30.58 16.79 30.18 16.79 29.69C16.79 29.2 17.19 28.8 17.68 28.8Z" fill="#FFB400" fill-opacity="1.000000" fill-rule="nonzero"/>
	<path id="Vector" d="M29.34 19.44C29.34 20.06 28.84 20.56 28.22 20.56C27.61 20.56 27.11 20.06 27.11 19.44C27.11 18.83 27.61 18.33 28.22 18.33C28.84 18.33 29.34 18.83 29.34 19.44Z" fill="#FFB400" fill-opacity="1.000000" fill-rule="evenodd"/>
	<path id="Vector" d="M26.27 19.44C26.27 20.06 25.77 20.56 25.16 20.56C24.54 20.56 24.04 20.06 24.04 19.44C24.04 18.83 24.54 18.33 25.16 18.33C25.77 18.33 26.27 18.83 26.27 19.44Z" fill="#FFB400" fill-opacity="1.000000" fill-rule="evenodd"/>
	<path id="Vector" d="M23.2 19.44C23.2 20.06 22.7 20.56 22.09 20.56C21.47 20.56 20.97 20.06 20.97 19.44C20.97 18.83 21.47 18.33 22.09 18.33C22.7 18.33 23.2 18.83 23.2 19.44Z" fill="#FFB400" fill-opacity="1.000000" fill-rule="evenodd"/>
	<path id="Vector" d="M72.66 6.82L72.24 6.82L72.55 6.51C73.48 5.58 73.48 4.06 72.55 3.13L70.11 0.69C69.18 -0.24 67.66 -0.24 66.73 0.69L60.61 6.82L3.33 6.82C1.49 6.82 0 8.32 0 10.16L0 56.39C0 58.64 1.83 60.48 4.08 60.48L30.45 60.48L30.45 68.35L25.08 68.35C23.65 68.35 22.48 69.52 22.48 70.95L22.48 72.06C22.48 73.49 23.65 74.66 25.08 74.66L50.91 74.66C52.34 74.66 53.51 73.49 53.51 72.06L53.51 70.95C53.51 69.52 52.34 68.35 50.91 68.35L45.54 68.35L45.54 60.48L57.44 60.48C58.06 60.48 58.55 59.98 58.55 59.36C58.55 58.75 58.06 58.25 57.44 58.25L4.08 58.25C3.05 58.25 2.22 57.42 2.22 56.39L2.22 53.1L73.77 53.1L73.77 56.39C73.77 57.42 72.94 58.25 71.91 58.25L62.64 58.25C62.02 58.25 61.52 58.75 61.52 59.36C61.52 59.98 62.02 60.48 62.64 60.48L71.91 60.48C74.16 60.48 76 58.64 76 56.39L76 10.16C76 8.32 74.5 6.82 72.66 6.82ZM50.91 70.58C51.11 70.58 51.28 70.74 51.28 70.95L51.28 72.06C51.28 72.26 51.11 72.43 50.91 72.43L25.08 72.43C24.88 72.43 24.71 72.26 24.71 72.06L24.71 70.95C24.71 70.74 24.88 70.58 25.08 70.58L50.91 70.58ZM32.67 60.48L43.32 60.48L43.32 68.35L32.67 68.35L32.67 60.48ZM68.31 2.27C68.37 2.2 68.47 2.2 68.54 2.27L70.97 4.7C71.04 4.77 71.04 4.87 70.97 4.93L68.65 7.26L65.98 4.59L68.31 2.27ZM64.41 6.17L67.07 8.83L66.3 9.61L63.63 6.94L64.41 6.17ZM62.06 8.52L64.72 11.19L51.55 24.36L48.88 21.69L62.06 8.52ZM60.41 18.7C61.92 18.7 63.16 19.93 63.16 21.44C63.16 22.96 61.92 24.19 60.41 24.19C58.89 24.19 57.66 22.96 57.66 21.44C57.66 21.43 57.67 21.41 57.67 21.39L60.36 18.7C60.37 18.7 60.39 18.7 60.41 18.7ZM49.62 25.58L46.32 26.92L47.67 23.63L49.62 25.58ZM73.77 50.87L2.22 50.87L2.22 10.16C2.22 9.55 2.72 9.05 3.33 9.05L58.38 9.05L56.68 10.74L18.85 10.74C18.23 10.74 17.73 11.24 17.73 11.86C17.73 12.47 18.23 12.97 18.85 12.97L54.46 12.97L46.6 20.82C46.38 21.05 46.21 21.31 46.09 21.6L43.6 27.69C43.37 28.25 43.5 28.89 43.93 29.31C44.22 29.6 44.6 29.75 44.99 29.75C45.18 29.75 45.37 29.71 45.55 29.64L51.64 27.15C51.93 27.04 52.18 26.87 52.4 26.66L55.79 23.27C56.52 25.11 58.31 26.42 60.41 26.42C63.15 26.42 65.38 24.19 65.38 21.44C65.38 19.35 64.08 17.55 62.24 16.82L66.09 12.97L69.84 12.97L69.84 46.95L69.25 46.95L65.22 39.96C64.91 39.43 64.23 39.24 63.7 39.55C63.17 39.86 62.98 40.54 63.29 41.07L66.68 46.95L51.13 46.95L49.46 44.06L57.24 30.59L60.69 36.57C61 37.11 61.68 37.29 62.21 36.98C62.75 36.67 62.93 35.99 62.62 35.46L58.94 29.08C58.58 28.46 57.95 28.1 57.24 28.1C56.53 28.1 55.9 28.46 55.54 29.08L48.18 41.83L38.73 25.47C38.37 24.85 37.74 24.49 37.03 24.49C36.32 24.49 35.69 24.85 35.33 25.47L32.82 29.81L32.82 17.88C32.82 16.45 31.66 15.28 30.23 15.28L11.13 15.28C9.7 15.28 8.53 16.45 8.53 17.88L8.53 42.22C8.53 43.25 9.36 44.08 10.39 44.08L24.59 44.08L22.93 46.95L6.15 46.95L6.15 12.97L13.65 12.97C14.27 12.97 14.76 12.47 14.76 11.86C14.76 11.24 14.27 10.74 13.65 10.74L5.77 10.74C4.75 10.74 3.92 11.58 3.92 12.6L3.92 47.32C3.92 48.34 4.75 49.17 5.77 49.17L70.22 49.17C71.24 49.17 72.07 48.34 72.07 47.32L72.07 12.6C72.07 11.58 71.24 10.74 70.22 10.74L68.31 10.74L70.01 9.05L72.66 9.05C73.27 9.05 73.77 9.55 73.77 10.16L73.77 50.87ZM30.6 24.05L30.6 41.85L10.76 41.85L10.76 24.05L30.6 24.05ZM10.76 21.82L10.76 17.88C10.76 17.68 10.92 17.51 11.13 17.51L30.23 17.51C30.43 17.51 30.6 17.68 30.6 17.88L30.6 21.82L10.76 21.82ZM27.16 44.08L30.97 44.08C31.99 44.08 32.82 43.25 32.82 42.22L32.82 39.87C33.1 40 33.41 40.07 33.74 40.07C34.5 40.07 35.18 39.68 35.56 39.02L37.45 35.74C37.51 35.64 37.6 35.62 37.66 35.62C37.72 35.62 37.81 35.64 37.87 35.74L39.04 37.76C39.42 38.42 40.1 38.81 40.86 38.81C41.62 38.81 42.3 38.42 42.68 37.76L42.97 37.26L48.56 46.95L25.5 46.95L27.16 44.08ZM32.82 36.14L32.82 34.27L37.03 26.98L41.68 35.03L40.86 36.46L39.8 34.63C39.35 33.85 38.55 33.39 37.66 33.39C36.77 33.39 35.97 33.85 35.52 34.63L33.74 37.72L32.82 36.14Z" fill="#FFB400" fill-opacity="1.000000" fill-rule="nonzero"/>
</svg>
