<svg width="128.000000" height="1335.000000" viewBox="0 0 128 1335" fill="none" xmlns="http://www.w3.org/2000/svg" xmlns:xlink="http://www.w3.org/1999/xlink">
	<desc>
			Created with Pixso.
	</desc>
	<defs>
		<filter id="filter_2_575_dd" x="0.000000" y="0.000000" width="128.000000" height="1335.000000" filterUnits="userSpaceOnUse" color-interpolation-filters="sRGB">
			<feFlood flood-opacity="0" result="BackgroundImageFix"/>
			<feColorMatrix in="SourceAlpha" type="matrix" values="0 0 0 0 0 0 0 0 0 0 0 0 0 0 0 0 0 0 127 0" result="hardAlpha"/>
			<feOffset dx="4" dy="0"/>
			<feGaussianBlur stdDeviation="3.33333"/>
			<feComposite in2="hardAlpha" operator="out" k2="-1" k3="1"/>
			<feColorMatrix type="matrix" values="0 0 0 0 0.18431 0 0 0 0 0.47843 0 0 0 0 0.97647 0 0 0 0.1 0"/>
			<feBlend mode="normal" in2="BackgroundImageFix" result="effect_dropShadow_1"/>
			<feBlend mode="normal" in="SourceGraphic" in2="effect_dropShadow_1" result="shape"/>
		</filter>
		<clipPath id="clip2_6707">
			<rect id="Icons/Contrast" width="30.000000" height="30.000000" transform="translate(45.000000 60.000000)" fill="white" fill-opacity="0"/>
		</clipPath>
		<clipPath id="clip2_6685">
			<rect id="Icons/Home" width="18.000000" height="18.000000" transform="translate(51.000000 313.000000)" fill="white" fill-opacity="0"/>
		</clipPath>
		<clipPath id="clip2_6671">
			<rect id="file-code" width="16.500000" height="18.000000" transform="translate(52.000000 396.000000)" fill="white" fill-opacity="0"/>
		</clipPath>
		<clipPath id="clip2_6670">
			<rect id="Icons/Services" width="18.000000" height="18.000000" transform="translate(51.000000 396.000000)" fill="white" fill-opacity="0"/>
		</clipPath>
		<clipPath id="clip2_6662">
			<rect id="Icons/cv" width="18.000000" height="18.000000" transform="translate(51.000000 479.000000)" fill="white" fill-opacity="0"/>
		</clipPath>
		<clipPath id="clip2_6646">
			<rect id="Icons/Portfolio" width="18.000000" height="18.000000" transform="translate(51.000000 562.000000)" fill="white" fill-opacity="0"/>
		</clipPath>
		<clipPath id="clip2_6624">
			<rect id="Icons/Blog" width="18.000000" height="18.000000" transform="translate(51.000000 645.000000)" fill="white" fill-opacity="0"/>
		</clipPath>
		<clipPath id="clip2_6602">
			<rect id="Icons/Contact" width="18.000000" height="18.000000" transform="translate(51.000000 728.000000)" fill="white" fill-opacity="0"/>
		</clipPath>
	</defs>
	<g filter="url(#filter_2_575_dd)">
		<rect id="Rectangle 25" x="6.000000" y="10.000000" width="108.000000" height="1315.000000" fill="#FAFAFA" fill-opacity="1.000000"/>
	</g>
	<rect id="Icons/Contrast" width="30.000000" height="30.000000" transform="translate(45.000000 60.000000)" fill="#FFFFFF" fill-opacity="0"/>
	<rect id="Icons/Contrast" width="30.000000" height="30.000000" transform="translate(45.000000 60.000000)" fill="#FFFFFF" fill-opacity="0"/>
	<rect id="Icons/Contrast" width="30.000000" height="30.000000" transform="translate(45.000000 60.000000)" fill="#FFFFFF" fill-opacity="0"/>
	<rect id="Icons/Contrast" width="30.000000" height="30.000000" transform="translate(45.000000 60.000000)" fill="#FFFFFF" fill-opacity="0"/>
	<g clip-path="url(#clip2_6707)">
		<path id="Vector" d="M60.5 87C53.59 87 48 81.4 48 74.5C48 67.59 53.59 62 60.5 62C67.4 62 73 67.59 73 74.5C73 81.4 67.4 87 60.5 87ZM52.16 80.03C52.98 81.26 54.06 82.29 55.33 83.05C56.6 83.81 58.02 84.28 59.49 84.42C60.96 84.57 62.45 84.38 63.84 83.88C65.23 83.39 66.5 82.59 67.54 81.54C68.59 80.49 69.39 79.23 69.89 77.84C70.38 76.45 70.57 74.96 70.42 73.49C70.28 72.02 69.81 70.6 69.05 69.33C68.29 68.06 67.26 66.98 66.03 66.16C66.57 68.08 66.58 70.11 66.08 72.04C65.57 73.97 64.56 75.73 63.15 77.15C61.74 78.56 59.97 79.57 58.04 80.08C56.11 80.58 54.08 80.56 52.16 80.03Z" fill="#2B2B2B" fill-opacity="1.000000" fill-rule="nonzero"/>
	</g>
	<path id="Union" d="M29 264L90 264C91.1045 264 92 264.896 92 266L92 286C92 287.104 91.1045 288 90 288L64.196 288L59 297L53.804 288L29 288C27.8955 288 27 287.104 27 286L27 266C27 264.896 27.8955 264 29 264Z" clip-rule="evenodd" fill="#2B2B2B" fill-opacity="1.000000" fill-rule="evenodd"/>
	<path id="Home" d="M44.27 282L42.95 282L42.95 273.27L44.27 273.27L44.27 277.06L48.62 277.06L48.62 273.27L49.94 273.27L49.94 282L48.62 282L48.62 278.19L44.27 278.19L44.27 282ZM57.57 278.75C57.57 280.78 56.36 282.13 54.51 282.13C52.67 282.13 51.46 280.78 51.46 278.75C51.46 276.72 52.67 275.37 54.51 275.37C56.36 275.37 57.57 276.72 57.57 278.75ZM60.26 282L58.98 282L58.98 275.45L60.21 275.45L60.21 276.51L60.29 276.51C60.56 275.8 61.2 275.37 62.07 275.37C62.94 275.37 63.55 275.8 63.83 276.51L63.9 276.51C64.21 275.82 64.92 275.37 65.86 275.37C67.05 275.37 67.88 276.11 67.88 277.61L67.88 282L66.61 282L66.61 277.73C66.61 276.84 66.05 276.46 65.38 276.46C64.55 276.46 64.07 277.04 64.07 277.82L64.07 282L62.8 282L62.8 277.64C62.8 276.93 62.31 276.46 61.6 276.46C60.88 276.46 60.26 277.08 60.26 277.96L60.26 282ZM75.14 280.36C74.85 281.42 73.84 282.13 72.41 282.13C70.48 282.13 69.29 280.8 69.29 278.76C69.29 276.75 70.49 275.37 72.32 275.37C73.8 275.37 75.22 276.29 75.22 278.66L75.22 279.11L70.56 279.11C70.6 280.37 71.33 281.07 72.42 281.07C73.15 281.07 73.7 280.76 73.93 280.14L75.14 280.36ZM72.33 276.42C71.29 276.42 70.62 277.22 70.57 278.15L73.97 278.15C73.96 277.15 73.32 276.42 72.33 276.42ZM52.75 278.75C52.75 280.01 53.31 281.06 54.52 281.06C55.72 281.06 56.28 280.01 56.28 278.75C56.28 277.5 55.72 276.43 54.52 276.43C53.31 276.43 52.75 277.5 52.75 278.75Z" fill="#FFFFFF" fill-opacity="1.000000" fill-rule="evenodd"/>
	<circle id="Ellipse 10" cx="60.000000" cy="322.000000" r="20.000000" fill="#FFB400" fill-opacity="1.000000"/>
	<rect id="Icons/Home" width="18.000000" height="18.000000" transform="translate(51.000000 313.000000)" fill="#FFFFFF" fill-opacity="0"/>
	<rect id="Icons/Home" width="18.000000" height="18.000000" transform="translate(51.000000 313.000000)" fill="#FFFFFF" fill-opacity="0"/>
	<rect id="Icons/Home" width="18.000000" height="18.000000" transform="translate(51.000000 313.000000)" fill="#FFFFFF" fill-opacity="0"/>
	<rect id="Icons/Home" width="18.000000" height="18.000000" transform="translate(51.000000 313.000000)" fill="#FFFFFF" fill-opacity="0"/>
	<g clip-path="url(#clip2_6685)">
		<path id="Vector" d="M66 328C66 328.19 65.92 328.39 65.78 328.53C65.63 328.67 65.44 328.75 65.25 328.75L54.75 328.75C54.55 328.75 54.36 328.67 54.21 328.53C54.07 328.39 54 328.19 54 328L54 321.25L51.75 321.25L59.49 314.2C59.63 314.08 59.81 314.01 60 314.01C60.18 314.01 60.36 314.08 60.5 314.2L68.25 321.25L66 321.25L66 328Z" fill="#2B2B2B" fill-opacity="1.000000" fill-rule="nonzero"/>
	</g>
	<circle id="Ellipse 10" cx="60.000000" cy="405.000000" r="20.000000" fill="#F0F0F6" fill-opacity="1.000000"/>
	<rect id="Icons/Services" width="18.000000" height="18.000000" transform="translate(51.000000 396.000000)" fill="#FFFFFF" fill-opacity="0"/>
	<rect id="Icons/Services" width="18.000000" height="18.000000" transform="translate(51.000000 396.000000)" fill="#FFFFFF" fill-opacity="0"/>
	<g clip-path="url(#clip2_6670)">
		<rect id="file-code" width="16.500000" height="18.000000" transform="translate(52.000000 396.000000)" fill="#000000" fill-opacity="0"/>
		<g clip-path="url(#clip2_6671)">
			<path id="Vector" d="M68.5 400.28L68.5 400.5L63 400.5L63 396L63.26 396C63.53 396 63.79 396.08 63.98 396.24L68.19 399.69C68.39 399.84 68.5 400.06 68.5 400.28ZM62.65 401.62C62.08 401.62 61.62 401.24 61.62 400.78L61.62 396L53.03 396C52.46 396 52 396.37 52 396.84L52 413.15C52 413.62 52.46 414 53.03 414L67.46 414C68.03 414 68.5 413.62 68.5 413.15L68.5 401.62L62.65 401.62ZM57.29 410.08C57.27 410.09 57.24 410.11 57.22 410.12C57.19 410.13 57.16 410.13 57.13 410.14C57.1 410.14 57.07 410.13 57.04 410.12C57.01 410.11 56.98 410.1 56.96 410.08L54.17 407.95C54.15 407.93 54.13 407.91 54.12 407.88C54.11 407.86 54.1 407.83 54.1 407.81C54.1 407.78 54.11 407.76 54.12 407.73C54.13 407.71 54.15 407.69 54.17 407.67L56.96 405.53C56.98 405.51 57.01 405.5 57.04 405.49C57.07 405.48 57.1 405.48 57.13 405.48C57.16 405.48 57.19 405.49 57.22 405.5C57.24 405.51 57.27 405.52 57.29 405.54L58.13 406.27C58.15 406.29 58.17 406.31 58.18 406.34C58.19 406.36 58.19 406.39 58.19 406.41C58.19 406.44 58.18 406.46 58.17 406.49C58.16 406.51 58.14 406.53 58.11 406.55L56.36 407.81L58.11 409.07C58.14 409.09 58.16 409.11 58.17 409.13C58.18 409.15 58.19 409.18 58.19 409.2C58.19 409.23 58.19 409.25 58.18 409.28C58.17 409.3 58.15 409.32 58.13 409.34L57.29 410.08ZM59.49 411.85L58.31 411.57C58.25 411.56 58.2 411.52 58.17 411.48C58.15 411.44 58.14 411.38 58.16 411.33L60.8 403.89C60.81 403.85 60.85 403.81 60.91 403.78C60.96 403.76 61.02 403.75 61.08 403.77L62.26 404.05C62.29 404.05 62.32 404.06 62.34 404.08C62.37 404.1 62.39 404.11 62.4 404.14C62.42 404.16 62.42 404.18 62.43 404.21C62.43 404.23 62.43 404.26 62.42 404.28L59.78 411.72C59.77 411.75 59.76 411.77 59.74 411.79C59.72 411.81 59.7 411.82 59.67 411.83C59.64 411.85 59.61 411.85 59.58 411.86C59.55 411.86 59.52 411.86 59.49 411.85ZM66.4 407.95L63.61 410.08C63.59 410.1 63.57 410.11 63.54 410.12C63.51 410.13 63.48 410.14 63.45 410.14C63.42 410.13 63.39 410.13 63.36 410.12C63.33 410.11 63.31 410.09 63.29 410.08L62.45 409.34C62.42 409.32 62.41 409.3 62.4 409.28C62.39 409.25 62.38 409.23 62.38 409.2C62.38 409.18 62.39 409.15 62.41 409.13C62.42 409.11 62.44 409.09 62.46 409.07L64.21 407.81L62.46 406.55C62.44 406.53 62.42 406.51 62.41 406.49C62.39 406.46 62.38 406.44 62.38 406.41C62.38 406.39 62.39 406.36 62.4 406.34C62.41 406.31 62.42 406.29 62.45 406.27L63.29 405.54C63.31 405.52 63.33 405.51 63.36 405.5C63.39 405.49 63.42 405.48 63.45 405.48C63.48 405.48 63.51 405.48 63.54 405.49C63.57 405.5 63.59 405.51 63.61 405.53L66.4 407.67C66.43 407.69 66.44 407.71 66.46 407.73C66.47 407.76 66.48 407.78 66.48 407.81C66.48 407.83 66.47 407.86 66.46 407.88C66.44 407.91 66.43 407.93 66.4 407.95Z" fill="#767676" fill-opacity="1.000000" fill-rule="nonzero"/>
		</g>
	</g>
	<circle id="Ellipse 11" cx="60.000000" cy="488.000000" r="20.000000" fill="#F0F0F6" fill-opacity="1.000000"/>
	<rect id="Icons/cv" width="18.000000" height="18.000000" transform="translate(51.000000 479.000000)" fill="#FFFFFF" fill-opacity="0"/>
	<rect id="Icons/cv" width="18.000000" height="18.000000" transform="translate(51.000000 479.000000)" fill="#FFFFFF" fill-opacity="0"/>
	<rect id="Icons/cv" width="18.000000" height="18.000000" transform="translate(51.000000 479.000000)" fill="#FFFFFF" fill-opacity="0"/>
	<g clip-path="url(#clip2_6662)">
		<path id="Vector" d="M63.76 490.27L60.25 493.62L56.73 490.27C54.1 490.38 52 492.43 52 494.97L52 495.31C52 496.24 52.79 497 53.76 497L66.73 497C67.7 497 68.5 496.24 68.5 495.31L68.5 494.97C68.5 492.43 66.39 490.38 63.76 490.27ZM52.5 481.8L52.73 481.85L52.73 483.91C52.47 484.06 52.29 484.31 52.29 484.62C52.29 484.92 52.46 485.16 52.7 485.31L52.12 487.5C52.06 487.75 52.2 488 52.4 488L53.94 488C54.15 488 54.29 487.75 54.22 487.5L53.65 485.31C53.89 485.16 54.06 484.92 54.06 484.62C54.06 484.31 53.87 484.06 53.62 483.91L53.62 482.06L56.05 482.62C55.73 483.22 55.53 483.9 55.53 484.62C55.53 487.11 57.64 489.12 60.25 489.12C62.85 489.12 64.96 487.11 64.96 484.62C64.96 483.9 64.76 483.22 64.44 482.62L67.99 481.8C68.66 481.65 68.66 480.85 67.99 480.69L60.98 479.08C60.5 478.97 59.99 478.97 59.52 479.08L52.5 480.69C51.83 480.85 51.83 481.65 52.5 481.8Z" fill="#767676" fill-opacity="1.000000" fill-rule="nonzero"/>
	</g>
	<circle id="Ellipse 12" cx="60.000000" cy="571.000000" r="20.000000" fill="#F0F0F6" fill-opacity="1.000000"/>
	<rect id="Icons/Portfolio" width="18.000000" height="18.000000" transform="translate(51.000000 562.000000)" fill="#FFFFFF" fill-opacity="0"/>
	<rect id="Icons/Portfolio" width="18.000000" height="18.000000" transform="translate(51.000000 562.000000)" fill="#FFFFFF" fill-opacity="0"/>
	<rect id="Icons/Portfolio" width="18.000000" height="18.000000" transform="translate(51.000000 562.000000)" fill="#FFFFFF" fill-opacity="0"/>
	<rect id="Icons/Portfolio" width="18.000000" height="18.000000" transform="translate(51.000000 562.000000)" fill="#727272" fill-opacity="0"/>
	<g clip-path="url(#clip2_6646)">
		<path id="Vector" d="M57.75 571.75L57.75 574L62.25 574L62.25 571.75L67.5 571.75L67.5 577C67.5 577.19 67.42 577.39 67.28 577.53C67.13 577.67 66.94 577.75 66.75 577.75L53.25 577.75C53.05 577.75 52.86 577.67 52.71 577.53C52.57 577.39 52.5 577.19 52.5 577L52.5 571.75L57.75 571.75ZM59.25 570.25L60.75 570.25L60.75 572.5L59.25 572.5L59.25 570.25ZM56.25 565.75L56.25 563.5C56.25 563.3 56.32 563.11 56.46 562.96C56.61 562.82 56.8 562.75 57 562.75L63 562.75C63.19 562.75 63.38 562.82 63.53 562.96C63.67 563.11 63.75 563.3 63.75 563.5L63.75 565.75L66.75 565.75C66.94 565.75 67.13 565.82 67.28 565.96C67.42 566.11 67.5 566.3 67.5 566.5L67.5 570.25L62.25 570.25L62.25 568.75L57.75 568.75L57.75 570.25L52.5 570.25L52.5 566.5C52.5 566.3 52.57 566.11 52.71 565.96C52.86 565.82 53.05 565.75 53.25 565.75L56.25 565.75ZM57.75 564.25L57.75 565.75L62.25 565.75L62.25 564.25L57.75 564.25Z" fill="#767676" fill-opacity="1.000000" fill-rule="nonzero"/>
	</g>
	<circle id="Ellipse 11" cx="60.000000" cy="654.000000" r="20.000000" fill="#F0F0F6" fill-opacity="1.000000"/>
	<rect id="Icons/Blog" width="18.000000" height="18.000000" transform="translate(51.000000 645.000000)" fill="#FFFFFF" fill-opacity="0"/>
	<rect id="Icons/Blog" width="18.000000" height="18.000000" transform="translate(51.000000 645.000000)" fill="#FFFFFF" fill-opacity="0"/>
	<rect id="Icons/Blog" width="18.000000" height="18.000000" transform="translate(51.000000 645.000000)" fill="#FFFFFF" fill-opacity="0"/>
	<rect id="Icons/Blog" width="18.000000" height="18.000000" transform="translate(51.000000 645.000000)" fill="#FFFFFF" fill-opacity="0"/>
	<g clip-path="url(#clip2_6624)">
		<path id="Vector" d="M66.75 646.5C55.5 646.5 54 657 53.25 661.5L54.74 661.5C55.24 659 56.49 657.62 58.5 657.37C61.5 657 63.75 654.37 64.5 652.12L63.37 651.37L64.12 650.62C64.87 649.87 65.62 648.75 66.75 646.5Z" fill="#767676" fill-opacity="1.000000" fill-rule="nonzero"/>
		<rect id="Rectangle 159" x="13.000000" y="601.000000" width="100.000000" height="100.000000" fill="#D9D9D9" fill-opacity="1.000000"/>
	</g>
	<circle id="Ellipse 14" cx="60.000000" cy="737.000000" r="20.000000" fill="#F0F0F6" fill-opacity="1.000000"/>
	<rect id="Icons/Contact" width="18.000000" height="18.000000" transform="translate(51.000000 728.000000)" fill="#FFFFFF" fill-opacity="0"/>
	<rect id="Icons/Contact" width="18.000000" height="18.000000" transform="translate(51.000000 728.000000)" fill="#FFFFFF" fill-opacity="0"/>
	<rect id="Icons/Contact" width="18.000000" height="18.000000" transform="translate(51.000000 728.000000)" fill="#FFFFFF" fill-opacity="0"/>
	<rect id="Icons/Contact" width="18.000000" height="18.000000" transform="translate(51.000000 728.000000)" fill="#727272" fill-opacity="0"/>
	<g clip-path="url(#clip2_6602)">
		<path id="Vector" d="M55.84 742.25L52.5 744.87L52.5 731C52.5 730.8 52.57 730.61 52.71 730.47C52.86 730.32 53.05 730.25 53.25 730.25L66.75 730.25C66.94 730.25 67.13 730.32 67.28 730.47C67.42 730.61 67.5 730.8 67.5 731L67.5 741.5C67.5 741.69 67.42 741.89 67.28 742.03C67.13 742.17 66.94 742.25 66.75 742.25L55.84 742.25Z" fill="#767676" fill-opacity="1.000000" fill-rule="nonzero"/>
	</g>
</svg>
